PathFileType  4	(X/Y/Z) C:\Users\antoi\Documents\MyRepositories\mobilecap\ResultsAnalysis
DataRate	CameraRate	NumFrames	NumMarkers	Units	OrigDataRate	OrigDataStartFrame	OrigNumFrames
100.0	100.0	7	51	mm	100.0	51	135
Frame#	Time	r_knee			r_shank_antsup			r_ankle			r_calc			r_5meta			r_toe			L_knee			L_shank_antsup			L_ankle			L_calc			L_5meta			L_toe			r_sh2			r_sh3			r_sh4			L_sh2			L_sh3			r_thigh1			r_thigh2			r_thigh3			r_thigh4			r_thigh5			L_thigh1			L_thigh2			L_thigh3			L_thigh4			r.ASIS			r.PSIS			L.ASIS			L.PSIS			C7			R_Shoulder			L_Shoulder			R_Sternum			L_Sternum			R_humerus			R_elbow_med			R_elbow_lat			R_forearm			R_wrist_radius			R_wrist_ulna			L_humerus			L_elbow_med			L_elbow_lat			L_forearm			L_wrist_radius			L_wrist_ulna			R_HJC			L_HJC			R_HJC_reg			L_HJC_reg			
		X1	Y1	Z1	X2	Y2	Z2	X3	Y3	Z3	X4	Y4	Z4	X5	Y5	Z5	X6	Y6	Z6	X7	Y7	Z7	X8	Y8	Z8	X9	Y9	Z9	X10	Y10	Z10	X11	Y11	Z11	X12	Y12	Z12	X13	Y13	Z13	X14	Y14	Z14	X15	Y15	Z15	X16	Y16	Z16	X17	Y17	Z17	X18	Y18	Z18	X19	Y19	Z19	X20	Y20	Z20	X21	Y21	Z21	X22	Y22	Z22	X23	Y23	Z23	X24	Y24	Z24	X25	Y25	Z25	X26	Y26	Z26	X27	Y27	Z27	X28	Y28	Z28	X29	Y29	Z29	X30	Y30	Z30	X31	Y31	Z31	X32	Y32	Z32	X33	Y33	Z33	X34	Y34	Z34	X35	Y35	Z35	X36	Y36	Z36	X37	Y37	Z37	X38	Y38	Z38	X39	Y39	Z39	X40	Y40	Z40	X41	Y41	Z41	X42	Y42	Z42	X43	Y43	Z43	X44	Y44	Z44	X45	Y45	Z45	X46	Y46	Z46	X47	Y47	Z47	X48	Y48	Z48	X49	Y49	Z49	X50	Y50	Z50	X51	Y51	Z51	

51	0.50000000	369.23142	486.44046	-43.69881	383.86459	409.34478	-63.05992	220.88473	107.76068	-103.08398	151.80083	81.61843	-149.08074	307.36387	43.52822	-53.51194	367.95568	65.97765	-101.36661	642.92580	492.39486	-297.64929	704.29486	422.53575	-311.11415	790.03471	114.82743	-278.46908	759.32814	57.41309	-215.63237	906.78689	96.07764	-333.91833	939.41716	149.43871	-295.13229	328.37387	306.17110	-49.48534	310.58569	441.81083	-38.09700	261.57707	340.90731	-47.92163	621.68679	397.60036	-288.55745	666.92696	284.57107	-295.16346	518.53864	774.22988	8.68225	486.85970	667.56902	-9.41993	425.95329	658.81479	14.67767	410.15058	800.36833	32.65476	377.55724	689.11701	4.28545	557.49187	742.29476	-354.66413	621.78055	622.22709	-331.04367	466.01825	702.10531	-296.24862	535.64683	577.92800	-281.83461	566.01660	947.93618	-23.49194	380.17510	994.67934	-112.02640	576.74715	931.56220	-274.42946	375.82958	992.42152	-212.06469	374.45674	1393.08972	-159.72024	503.42437	1366.88700	-0.11032	421.36771	1361.63233	-345.50833	516.85879	1369.77172	-161.24444	514.51468	1370.64357	-205.61676	552.13871	1242.58168	56.90650	556.12721	1019.56685	29.38466	583.62199	1045.49920	90.91421	715.08309	995.05911	64.97948	824.15227	920.21896	33.19061	815.24988	896.89083	59.36181	393.80101	1248.88818	-399.10115	329.55739	1034.92233	-289.83768	297.98267	1058.78990	-359.15859	293.24666	951.75542	-395.35319	231.76516	803.57350	-403.24721	201.49747	821.31797	-399.54642	484.92400	871.95703	-47.91979	492.30428	863.00236	-254.05981	496.81425	873.47281	-53.75153	489.60892	869.72639	-219.67907	
52	0.51000000	377.69407	485.43765	-43.56764	391.26450	407.86961	-63.10094	222.27070	109.35388	-102.50053	152.73812	84.20389	-148.53027	307.63616	43.48284	-53.25516	368.60593	65.58023	-101.00953	656.28710	491.14787	-297.21333	718.04149	420.92232	-309.79588	799.36469	112.55291	-277.45197	767.29353	55.47111	-215.81613	916.73899	93.90947	-331.55353	949.36773	146.29967	-291.48517	333.90524	305.71905	-49.19126	318.66071	441.59250	-37.92686	267.70108	341.69831	-47.49854	634.58740	396.50176	-289.78190	678.76069	283.18252	-296.49129	528.82851	772.37963	8.47703	496.56438	665.94921	-9.27621	435.49868	657.59840	14.47611	420.60940	799.29056	31.95053	387.32260	688.15535	3.70542	570.23098	740.47785	-354.82783	634.50324	620.56179	-330.32369	478.66433	700.38600	-296.50014	548.19351	576.25007	-281.70644	577.55714	946.05531	-23.66305	392.01960	992.59010	-113.67193	589.19212	929.05384	-274.85214	387.93392	990.30922	-213.65158	386.45430	1391.09025	-161.46191	515.35269	1364.92411	-1.57281	433.64690	1359.65998	-347.03060	529.11753	1367.77337	-162.79794	526.93876	1368.55565	-207.19091	563.71621	1240.79505	55.98692	567.42852	1017.50129	29.74753	594.88865	1043.86737	91.23147	726.60624	994.32820	65.11928	836.40513	920.65991	33.01575	827.65976	897.07452	58.95385	404.92459	1247.49990	-400.62971	338.97610	1033.99874	-291.15559	306.86425	1058.63045	-359.91602	300.00699	951.96874	-396.55139	235.86177	804.69614	-403.95948	206.01047	823.07143	-399.81838	496.33864	870.07064	-48.59233	504.70185	860.59827	-254.67528	508.55999	871.16014	-54.11215	501.77045	867.37010	-220.27601	
53	0.52000000	386.65767	484.37327	-43.46050	399.33756	406.47714	-63.13456	223.83277	111.18643	-101.84767	153.89595	87.23886	-147.88163	307.97809	43.48365	-52.97485	369.37029	65.15000	-100.60442	670.08131	490.22840	-297.19525	731.57729	419.16520	-308.68237	806.44128	109.83940	-276.06835	772.34417	53.95904	-215.65496	924.44882	90.15598	-328.43984	957.46375	141.27587	-287.08870	339.85263	305.37000	-48.91421	327.26506	441.37191	-37.77171	274.25399	342.60184	-47.08984	647.15348	395.83815	-291.17285	689.46419	281.93532	-297.73559	539.30555	770.61767	8.28457	506.56365	664.37804	-9.06132	445.30605	656.41614	14.29049	431.18851	798.26068	31.05202	397.33495	687.19204	3.07947	584.19155	739.58298	-354.77806	648.34023	619.70808	-329.75225	492.10575	699.01320	-297.81551	561.45065	575.08479	-282.71313	589.32555	944.18143	-23.80282	404.08174	990.64296	-115.24630	601.78921	926.85978	-275.26002	400.10984	988.50416	-215.15112	398.58416	1389.25403	-163.33522	527.28557	1363.23477	-3.12727	445.95413	1357.84708	-348.64153	541.43229	1366.02485	-164.47633	539.41881	1366.68561	-208.89541	575.15217	1239.21585	54.99903	578.50639	1015.67010	29.91672	605.84014	1042.41818	91.35562	737.78470	993.51019	65.35970	848.21098	920.75778	33.17689	839.43130	896.95023	58.88061	416.20379	1246.23069	-402.24827	348.74799	1033.11064	-292.70234	316.20875	1058.42667	-360.96100	307.59472	952.11404	-397.98582	241.24514	805.59416	-405.02903	211.75610	824.51061	-400.55508	507.92578	868.24475	-49.33345	517.22791	858.50362	-255.36744	520.61180	868.86561	-54.45229	513.99571	865.30661	-220.84258	
54	0.53000000	396.15660	483.28813	-43.42722	408.14878	405.24756	-63.15585	225.59556	113.31081	-101.13906	155.33761	90.79498	-147.15152	308.40821	43.55402	-52.68237	370.24611	64.66477	-100.15158	683.83515	489.46564	-297.48856	744.70704	417.33833	-307.73747	812.16406	107.02129	-274.39920	775.56428	53.13423	-215.14773	930.63650	85.36251	-324.88495	964.38877	134.97432	-282.33718	346.15307	305.13337	-48.66456	336.41276	441.20678	-37.65909	281.25094	343.67604	-46.73009	659.34289	395.44964	-292.45561	699.38098	280.81205	-298.62688	550.03658	768.97769	8.03514	516.89890	662.88282	-8.86836	455.43241	655.30593	14.07071	441.95621	797.31047	29.93369	407.65767	686.25737	2.37687	599.15783	739.48293	-354.61629	662.95916	619.47449	-329.40596	506.14723	698.07083	-300.10603	575.14976	574.42066	-284.64901	601.34387	942.32102	-23.99978	416.38278	988.87670	-116.72716	614.56225	925.08720	-275.71698	412.40274	987.04763	-216.55738	410.84755	1387.61702	-165.30427	539.25020	1361.87654	-4.75478	458.30093	1356.22378	-350.31856	553.80702	1364.55675	-166.25379	551.95310	1365.07238	-210.69769	586.45255	1237.88511	53.95842	589.34153	1014.12787	29.84757	616.44888	1041.18011	91.26335	748.59524	992.62572	65.67927	859.53411	920.52775	33.66655	850.56782	896.52703	59.12138	427.66426	1245.10577	-403.92272	358.91609	1032.26983	-294.45346	326.05446	1058.18298	-362.28041	316.02908	952.18828	-399.65684	247.92561	806.25566	-406.46599	218.74028	825.62049	-401.76499	519.74172	866.48657	-50.21293	529.90696	856.80778	-256.21102	532.97069	866.65755	-54.87956	526.32733	863.60996	-221.46765	
55	0.54000000	406.25028	482.22780	-43.49952	417.69989	404.20575	-63.15016	227.60455	115.79911	-100.38935	157.13061	94.95854	-146.36334	308.94485	43.72019	-52.38877	371.23007	64.09987	-99.66026	697.20979	488.78378	-297.96190	757.37919	415.55046	-306.90914	817.30689	104.38000	-272.58857	777.91971	53.08845	-214.37095	935.86706	80.06243	-321.25124	970.67215	127.98427	-277.65759	352.77544	305.04328	-48.44565	346.13662	441.16307	-37.61647	288.72087	344.98708	-46.44966	671.20570	395.25014	-293.46245	708.88627	279.85480	-299.04721	561.10538	767.49598	7.65502	527.63579	661.49659	-8.79642	465.96781	654.29357	13.75504	453.00897	796.46005	28.59646	418.38098	685.37800	1.56249	614.82070	739.98222	-354.47958	678.00343	619.66810	-329.28622	520.58382	697.62982	-303.15201	589.03302	574.21874	-287.20138	613.61748	940.51356	-24.33603	428.92598	987.32499	-118.10647	627.52388	923.83022	-276.28071	424.86709	985.95800	-217.88004	423.22744	1386.22352	-167.33081	551.26819	1360.89131	-6.43275	470.70222	1354.81418	-352.03985	566.24486	1363.39040	-168.09884	564.53540	1363.74846	-212.56011	597.62534	1236.83198	52.88208	599.92099	1012.91575	29.50174	626.70254	1040.17206	90.95457	759.01306	991.68521	66.06150	870.33861	919.98261	34.47202	861.07402	895.80196	59.65321	439.34192	1244.14207	-405.62542	369.51243	1031.48660	-296.38043	336.44009	1057.90629	-363.86126	325.33422	952.19308	-401.55928	255.91429	806.68391	-408.27673	226.96821	826.40241	-403.44797	531.83605	864.82242	-51.28685	542.76898	855.58178	-257.26441	545.61144	864.61775	-55.50287	538.82676	862.33757	-222.24490	
56	0.55000000	417.03163	481.22953	-43.67424	427.91792	403.29713	-63.09272	229.93793	118.73586	-99.61075	159.34757	99.82368	-145.54318	309.60298	44.00930	-52.10294	372.32479	63.43577	-99.14633	710.09589	488.20263	-298.49107	769.66571	413.89520	-306.16414	822.35032	102.07833	-270.80921	780.08598	53.72982	-213.44537	940.46066	74.67102	-317.88196	976.59334	120.77364	-273.43171	359.75147	305.15916	-48.25046	356.49709	441.30010	-37.66363	296.71512	346.59764	-46.26751	682.84959	395.22597	-294.14884	718.27071	279.12893	-299.03144	572.59833	766.20792	7.08294	538.86495	660.25148	-8.93286	477.02432	653.39020	13.28675	464.45093	795.71392	27.06732	429.60733	684.56946	0.60867	630.83464	740.86337	-354.50012	693.16614	620.13507	-329.33605	535.23134	697.70539	-306.65136	602.90785	574.41160	-290.03489	626.14138	938.82698	-24.86793	441.69872	986.01583	-119.39360	640.67926	923.15196	-276.98837	437.55728	985.23225	-219.14135	435.69694	1385.11666	-169.38032	563.35099	1360.30074	-8.13981	483.17419	1353.63702	-353.78645	578.74357	1362.53902	-169.97821	577.15705	1362.73759	-214.44609	608.67978	1236.07385	51.78515	610.24180	1012.05946	28.85145	636.59656	1039.39949	90.43944	769.01788	990.69171	66.49461	880.59882	919.12940	35.57320	870.95964	894.76173	60.44945	451.27731	1243.34895	-407.33938	380.55832	1030.77315	-298.45373	347.39700	1057.60870	-365.69003	335.53904	952.13315	-403.68181	265.22407	806.89105	-410.46201	236.44621	826.86860	-405.59404	544.24465	863.29747	-52.58402	555.84692	854.86677	-258.55525	558.49304	862.82989	-56.40591	551.56548	861.52177	-223.24964	
57	0.56000000	428.62728	480.30946	-43.90560	438.68145	402.39373	-62.94773	232.70755	122.20374	-98.80758	162.07336	105.48245	-144.71534	310.39402	44.44875	-51.83131	373.54677	62.66566	-98.62509	722.62571	487.79812	-298.99113	781.69113	412.41542	-305.50705	827.43512	100.16507	-269.22218	782.39158	54.84283	-212.49903	944.50138	69.45963	-315.04077	982.18646	113.65467	-269.92759	367.17895	305.54460	-48.05571	367.58736	441.65420	-37.80064	305.31496	348.55459	-46.18315	694.38209	395.40175	-294.57968	727.66754	278.68232	-298.73219	584.59008	765.14349	6.28200	550.69459	659.17110	-9.33527	488.72043	652.59075	12.63184	476.36836	795.05798	25.39068	441.43647	683.82769	-0.49250	646.87103	741.92839	-354.77548	708.23486	620.77680	-329.47805	549.93595	698.23553	-310.28294	616.67529	574.91066	-292.86565	638.90254	937.34278	-25.61831	454.67686	984.96920	-120.61574	654.02927	923.06918	-277.84972	450.51394	984.84823	-220.37272	448.22712	1384.32436	-171.42916	575.49856	1360.10345	-9.86141	495.73312	1352.70542	-355.54527	591.29296	1362.00739	-171.86181	589.80988	1362.05129	-216.32506	619.62907	1235.61687	50.67663	620.31322	1011.56856	27.88440	646.12876	1038.85290	89.72560	778.59919	989.64412	66.97097	890.30386	917.96985	36.94155	880.24209	893.39210	61.47587	463.50824	1242.72954	-409.06021	392.06970	1030.14491	-300.64709	358.94639	1057.30511	-367.75093	346.67220	952.01320	-406.00832	275.86677	806.89106	-413.01471	247.18055	827.03446	-408.18248	556.98213	861.96733	-54.10155	569.16942	854.66522	-260.07622	571.57065	861.36663	-57.62849	564.60668	861.16441	-224.51985	
